<svg xmlns="http://www.w3.org/2000/svg" xmlns:xlink="http://www.w3.org/1999/xlink" width="209" zoomAndPan="magnify" viewBox="0 0 156.75 31.5" height="42" preserveAspectRatio="xMidYMid meet" version="1.0"><defs><g/><clipPath id="52368716e8"><path d="M 4.203125 8.925781 L 24.136719 8.925781 L 24.136719 26.644531 L 4.203125 26.644531 Z M 4.203125 8.925781 " clip-rule="nonzero"/></clipPath></defs><g fill="#f8f9fa" fill-opacity="1"><g transform="translate(26.052056, 22.749447)"><g><path d="M 6.765625 0.21875 C 5.546875 0.21875 4.492188 -0.0507812 3.609375 -0.59375 C 2.734375 -1.132812 2.050781 -1.882812 1.5625 -2.84375 C 1.070312 -3.8125 0.828125 -4.9375 0.828125 -6.21875 C 0.828125 -7.488281 1.070312 -8.601562 1.5625 -9.5625 C 2.050781 -10.53125 2.734375 -11.285156 3.609375 -11.828125 C 4.492188 -12.378906 5.546875 -12.65625 6.765625 -12.65625 C 8.191406 -12.65625 9.347656 -12.3125 10.234375 -11.625 C 11.128906 -10.945312 11.703125 -10 11.953125 -8.78125 L 10.296875 -8.78125 C 10.109375 -9.550781 9.722656 -10.164062 9.140625 -10.625 C 8.554688 -11.09375 7.765625 -11.328125 6.765625 -11.328125 C 5.878906 -11.328125 5.101562 -11.125 4.4375 -10.71875 C 3.78125 -10.3125 3.269531 -9.722656 2.90625 -8.953125 C 2.539062 -8.191406 2.359375 -7.28125 2.359375 -6.21875 C 2.359375 -5.15625 2.539062 -4.238281 2.90625 -3.46875 C 3.269531 -2.707031 3.78125 -2.117188 4.4375 -1.703125 C 5.101562 -1.296875 5.878906 -1.09375 6.765625 -1.09375 C 7.765625 -1.09375 8.554688 -1.320312 9.140625 -1.78125 C 9.722656 -2.238281 10.109375 -2.847656 10.296875 -3.609375 L 11.953125 -3.609375 C 11.703125 -2.410156 11.128906 -1.472656 10.234375 -0.796875 C 9.347656 -0.117188 8.191406 0.21875 6.765625 0.21875 Z M 6.765625 0.21875 "/></g></g></g><g fill="#f8f9fa" fill-opacity="1"><g transform="translate(38.798965, 22.749447)"><g><path d="M 5.234375 0.21875 C 4.410156 0.21875 3.664062 0.03125 3 -0.34375 C 2.332031 -0.726562 1.804688 -1.265625 1.421875 -1.953125 C 1.046875 -2.648438 0.859375 -3.46875 0.859375 -4.40625 C 0.859375 -5.34375 1.050781 -6.15625 1.4375 -6.84375 C 1.832031 -7.539062 2.363281 -8.078125 3.03125 -8.453125 C 3.695312 -8.835938 4.445312 -9.03125 5.28125 -9.03125 C 6.101562 -9.03125 6.847656 -8.835938 7.515625 -8.453125 C 8.179688 -8.078125 8.707031 -7.539062 9.09375 -6.84375 C 9.476562 -6.15625 9.671875 -5.34375 9.671875 -4.40625 C 9.671875 -3.46875 9.472656 -2.648438 9.078125 -1.953125 C 8.679688 -1.265625 8.148438 -0.726562 7.484375 -0.34375 C 6.816406 0.03125 6.066406 0.21875 5.234375 0.21875 Z M 5.234375 -1.0625 C 5.742188 -1.0625 6.21875 -1.1875 6.65625 -1.4375 C 7.09375 -1.6875 7.445312 -2.054688 7.71875 -2.546875 C 8 -3.046875 8.140625 -3.664062 8.140625 -4.40625 C 8.140625 -5.132812 8.003906 -5.75 7.734375 -6.25 C 7.472656 -6.75 7.117188 -7.125 6.671875 -7.375 C 6.234375 -7.625 5.769531 -7.75 5.28125 -7.75 C 4.769531 -7.75 4.296875 -7.625 3.859375 -7.375 C 3.421875 -7.125 3.0625 -6.75 2.78125 -6.25 C 2.507812 -5.75 2.375 -5.132812 2.375 -4.40625 C 2.375 -3.664062 2.507812 -3.046875 2.78125 -2.546875 C 3.0625 -2.054688 3.414062 -1.6875 3.84375 -1.4375 C 4.28125 -1.1875 4.742188 -1.0625 5.234375 -1.0625 Z M 5.234375 -1.0625 "/></g></g></g><g fill="#f8f9fa" fill-opacity="1"><g transform="translate(49.273443, 22.749447)"><g><path d="M 1.21875 0 L 1.21875 -8.8125 L 2.578125 -8.8125 L 2.671875 -7.234375 C 2.953125 -7.785156 3.359375 -8.222656 3.890625 -8.546875 C 4.421875 -8.867188 5.023438 -9.03125 5.703125 -9.03125 C 6.742188 -9.03125 7.570312 -8.710938 8.1875 -8.078125 C 8.8125 -7.441406 9.125 -6.46875 9.125 -5.15625 L 9.125 0 L 7.640625 0 L 7.640625 -4.984375 C 7.640625 -6.828125 6.878906 -7.75 5.359375 -7.75 C 4.609375 -7.75 3.976562 -7.472656 3.46875 -6.921875 C 2.96875 -6.367188 2.71875 -5.582031 2.71875 -4.5625 L 2.71875 0 Z M 1.21875 0 "/></g></g></g><g fill="#f8f9fa" fill-opacity="1"><g transform="translate(59.39285, 22.749447)"><g><path d="M 4.59375 0.21875 C 3.539062 0.21875 2.664062 -0.046875 1.96875 -0.578125 C 1.269531 -1.117188 0.863281 -1.84375 0.75 -2.75 L 2.28125 -2.75 C 2.375 -2.289062 2.617188 -1.890625 3.015625 -1.546875 C 3.410156 -1.210938 3.945312 -1.046875 4.625 -1.046875 C 5.25 -1.046875 5.707031 -1.175781 6 -1.4375 C 6.300781 -1.707031 6.453125 -2.023438 6.453125 -2.390625 C 6.453125 -2.929688 6.257812 -3.289062 5.875 -3.46875 C 5.488281 -3.644531 4.945312 -3.800781 4.25 -3.9375 C 3.769531 -4.039062 3.289062 -4.179688 2.8125 -4.359375 C 2.34375 -4.535156 1.945312 -4.785156 1.625 -5.109375 C 1.3125 -5.429688 1.15625 -5.859375 1.15625 -6.390625 C 1.15625 -7.160156 1.441406 -7.789062 2.015625 -8.28125 C 2.585938 -8.78125 3.367188 -9.03125 4.359375 -9.03125 C 5.285156 -9.03125 6.046875 -8.796875 6.640625 -8.328125 C 7.242188 -7.859375 7.59375 -7.191406 7.6875 -6.328125 L 6.21875 -6.328125 C 6.15625 -6.773438 5.960938 -7.125 5.640625 -7.375 C 5.316406 -7.632812 4.878906 -7.765625 4.328125 -7.765625 C 3.796875 -7.765625 3.382812 -7.648438 3.09375 -7.421875 C 2.8125 -7.203125 2.671875 -6.90625 2.671875 -6.53125 C 2.671875 -6.175781 2.851562 -5.898438 3.21875 -5.703125 C 3.59375 -5.503906 4.101562 -5.332031 4.75 -5.1875 C 5.289062 -5.070312 5.804688 -4.925781 6.296875 -4.75 C 6.785156 -4.582031 7.1875 -4.328125 7.5 -3.984375 C 7.820312 -3.648438 7.984375 -3.160156 7.984375 -2.515625 C 7.992188 -1.722656 7.691406 -1.066406 7.078125 -0.546875 C 6.472656 -0.0351562 5.644531 0.21875 4.59375 0.21875 Z M 4.59375 0.21875 "/></g></g></g><g fill="#f8f9fa" fill-opacity="1"><g transform="translate(68.23402, 22.749447)"><g><path d="M 4.4375 0.21875 C 3.394531 0.21875 2.566406 -0.0976562 1.953125 -0.734375 C 1.335938 -1.367188 1.03125 -2.34375 1.03125 -3.65625 L 1.03125 -8.8125 L 2.515625 -8.8125 L 2.515625 -3.8125 C 2.515625 -1.976562 3.269531 -1.0625 4.78125 -1.0625 C 5.550781 -1.0625 6.1875 -1.335938 6.6875 -1.890625 C 7.1875 -2.441406 7.4375 -3.226562 7.4375 -4.25 L 7.4375 -8.8125 L 8.9375 -8.8125 L 8.9375 0 L 7.578125 0 L 7.484375 -1.578125 C 7.210938 -1.023438 6.804688 -0.585938 6.265625 -0.265625 C 5.722656 0.0546875 5.113281 0.21875 4.4375 0.21875 Z M 4.4375 0.21875 "/></g></g></g><g fill="#f8f9fa" fill-opacity="1"><g transform="translate(78.353427, 22.749447)"><g><path d="M 1.21875 0 L 1.21875 -12.796875 L 2.71875 -12.796875 L 2.71875 0 Z M 1.21875 0 "/></g></g></g><g fill="#f8f9fa" fill-opacity="1"><g transform="translate(82.259155, 22.749447)"><g><path d="M 4.703125 0 C 3.898438 0 3.265625 -0.191406 2.796875 -0.578125 C 2.335938 -0.972656 2.109375 -1.679688 2.109375 -2.703125 L 2.109375 -7.546875 L 0.59375 -7.546875 L 0.59375 -8.8125 L 2.109375 -8.8125 L 2.3125 -10.921875 L 3.609375 -10.921875 L 3.609375 -8.8125 L 6.203125 -8.8125 L 6.203125 -7.546875 L 3.609375 -7.546875 L 3.609375 -2.703125 C 3.609375 -2.140625 3.71875 -1.757812 3.9375 -1.5625 C 4.164062 -1.375 4.566406 -1.28125 5.140625 -1.28125 L 6.0625 -1.28125 L 6.0625 0 Z M 4.703125 0 "/></g></g></g><g fill="#f8f9fa" fill-opacity="1"><g transform="translate(88.845512, 22.749447)"><g><path d="M 5.234375 0.21875 C 4.410156 0.21875 3.664062 0.03125 3 -0.34375 C 2.332031 -0.726562 1.804688 -1.265625 1.421875 -1.953125 C 1.046875 -2.648438 0.859375 -3.46875 0.859375 -4.40625 C 0.859375 -5.34375 1.050781 -6.15625 1.4375 -6.84375 C 1.832031 -7.539062 2.363281 -8.078125 3.03125 -8.453125 C 3.695312 -8.835938 4.445312 -9.03125 5.28125 -9.03125 C 6.101562 -9.03125 6.847656 -8.835938 7.515625 -8.453125 C 8.179688 -8.078125 8.707031 -7.539062 9.09375 -6.84375 C 9.476562 -6.15625 9.671875 -5.34375 9.671875 -4.40625 C 9.671875 -3.46875 9.472656 -2.648438 9.078125 -1.953125 C 8.679688 -1.265625 8.148438 -0.726562 7.484375 -0.34375 C 6.816406 0.03125 6.066406 0.21875 5.234375 0.21875 Z M 5.234375 -1.0625 C 5.742188 -1.0625 6.21875 -1.1875 6.65625 -1.4375 C 7.09375 -1.6875 7.445312 -2.054688 7.71875 -2.546875 C 8 -3.046875 8.140625 -3.664062 8.140625 -4.40625 C 8.140625 -5.132812 8.003906 -5.75 7.734375 -6.25 C 7.472656 -6.75 7.117188 -7.125 6.671875 -7.375 C 6.234375 -7.625 5.769531 -7.75 5.28125 -7.75 C 4.769531 -7.75 4.296875 -7.625 3.859375 -7.375 C 3.421875 -7.125 3.0625 -6.75 2.78125 -6.25 C 2.507812 -5.75 2.375 -5.132812 2.375 -4.40625 C 2.375 -3.664062 2.507812 -3.046875 2.78125 -2.546875 C 3.0625 -2.054688 3.414062 -1.6875 3.84375 -1.4375 C 4.28125 -1.1875 4.742188 -1.0625 5.234375 -1.0625 Z M 5.234375 -1.0625 "/></g></g></g><g fill="#f8f9fa" fill-opacity="1"><g transform="translate(99.31999, 22.749447)"><g><path d="M 1.21875 0 L 1.21875 -8.8125 L 2.578125 -8.8125 L 2.703125 -7.125 C 2.972656 -7.707031 3.382812 -8.171875 3.9375 -8.515625 C 4.5 -8.859375 5.1875 -9.03125 6 -9.03125 L 6 -7.46875 L 5.59375 -7.46875 C 5.070312 -7.46875 4.59375 -7.375 4.15625 -7.1875 C 3.71875 -7 3.367188 -6.6875 3.109375 -6.25 C 2.847656 -5.8125 2.71875 -5.207031 2.71875 -4.4375 L 2.71875 0 Z M 1.21875 0 "/></g></g></g><g fill="#f8f9fa" fill-opacity="1"><g transform="translate(105.728941, 22.749447)"><g><path d="M 2.125 -10.765625 C 1.832031 -10.765625 1.585938 -10.863281 1.390625 -11.0625 C 1.191406 -11.257812 1.09375 -11.503906 1.09375 -11.796875 C 1.09375 -12.078125 1.191406 -12.3125 1.390625 -12.5 C 1.585938 -12.695312 1.832031 -12.796875 2.125 -12.796875 C 2.414062 -12.796875 2.660156 -12.695312 2.859375 -12.5 C 3.054688 -12.3125 3.15625 -12.078125 3.15625 -11.796875 C 3.15625 -11.503906 3.054688 -11.257812 2.859375 -11.0625 C 2.660156 -10.863281 2.414062 -10.765625 2.125 -10.765625 Z M 1.390625 0 L 1.390625 -8.8125 L 2.875 -8.8125 L 2.875 0 Z M 1.390625 0 "/></g></g></g><g fill="#f8f9fa" fill-opacity="1"><g transform="translate(109.936477, 22.749447)"><g><path d="M 5.234375 0.21875 C 4.410156 0.21875 3.664062 0.03125 3 -0.34375 C 2.332031 -0.726562 1.804688 -1.265625 1.421875 -1.953125 C 1.046875 -2.648438 0.859375 -3.46875 0.859375 -4.40625 C 0.859375 -5.34375 1.050781 -6.15625 1.4375 -6.84375 C 1.832031 -7.539062 2.363281 -8.078125 3.03125 -8.453125 C 3.695312 -8.835938 4.445312 -9.03125 5.28125 -9.03125 C 6.101562 -9.03125 6.847656 -8.835938 7.515625 -8.453125 C 8.179688 -8.078125 8.707031 -7.539062 9.09375 -6.84375 C 9.476562 -6.15625 9.671875 -5.34375 9.671875 -4.40625 C 9.671875 -3.46875 9.472656 -2.648438 9.078125 -1.953125 C 8.679688 -1.265625 8.148438 -0.726562 7.484375 -0.34375 C 6.816406 0.03125 6.066406 0.21875 5.234375 0.21875 Z M 5.234375 -1.0625 C 5.742188 -1.0625 6.21875 -1.1875 6.65625 -1.4375 C 7.09375 -1.6875 7.445312 -2.054688 7.71875 -2.546875 C 8 -3.046875 8.140625 -3.664062 8.140625 -4.40625 C 8.140625 -5.132812 8.003906 -5.75 7.734375 -6.25 C 7.472656 -6.75 7.117188 -7.125 6.671875 -7.375 C 6.234375 -7.625 5.769531 -7.75 5.28125 -7.75 C 4.769531 -7.75 4.296875 -7.625 3.859375 -7.375 C 3.421875 -7.125 3.0625 -6.75 2.78125 -6.25 C 2.507812 -5.75 2.375 -5.132812 2.375 -4.40625 C 2.375 -3.664062 2.507812 -3.046875 2.78125 -2.546875 C 3.0625 -2.054688 3.414062 -1.6875 3.84375 -1.4375 C 4.28125 -1.1875 4.742188 -1.0625 5.234375 -1.0625 Z M 5.234375 -1.0625 "/></g></g></g><g fill="#f8f9fa" fill-opacity="1"><g transform="translate(120.410955, 22.749447)"><g><path d="M 4.59375 0.21875 C 3.539062 0.21875 2.664062 -0.046875 1.96875 -0.578125 C 1.269531 -1.117188 0.863281 -1.84375 0.75 -2.75 L 2.28125 -2.75 C 2.375 -2.289062 2.617188 -1.890625 3.015625 -1.546875 C 3.410156 -1.210938 3.945312 -1.046875 4.625 -1.046875 C 5.25 -1.046875 5.707031 -1.175781 6 -1.4375 C 6.300781 -1.707031 6.453125 -2.023438 6.453125 -2.390625 C 6.453125 -2.929688 6.257812 -3.289062 5.875 -3.46875 C 5.488281 -3.644531 4.945312 -3.800781 4.25 -3.9375 C 3.769531 -4.039062 3.289062 -4.179688 2.8125 -4.359375 C 2.34375 -4.535156 1.945312 -4.785156 1.625 -5.109375 C 1.3125 -5.429688 1.15625 -5.859375 1.15625 -6.390625 C 1.15625 -7.160156 1.441406 -7.789062 2.015625 -8.28125 C 2.585938 -8.78125 3.367188 -9.03125 4.359375 -9.03125 C 5.285156 -9.03125 6.046875 -8.796875 6.640625 -8.328125 C 7.242188 -7.859375 7.59375 -7.191406 7.6875 -6.328125 L 6.21875 -6.328125 C 6.15625 -6.773438 5.960938 -7.125 5.640625 -7.375 C 5.316406 -7.632812 4.878906 -7.765625 4.328125 -7.765625 C 3.796875 -7.765625 3.382812 -7.648438 3.09375 -7.421875 C 2.8125 -7.203125 2.671875 -6.90625 2.671875 -6.53125 C 2.671875 -6.175781 2.851562 -5.898438 3.21875 -5.703125 C 3.59375 -5.503906 4.101562 -5.332031 4.75 -5.1875 C 5.289062 -5.070312 5.804688 -4.925781 6.296875 -4.75 C 6.785156 -4.582031 7.1875 -4.328125 7.5 -3.984375 C 7.820312 -3.648438 7.984375 -3.160156 7.984375 -2.515625 C 7.992188 -1.722656 7.691406 -1.066406 7.078125 -0.546875 C 6.472656 -0.0351562 5.644531 0.21875 4.59375 0.21875 Z M 4.59375 0.21875 "/></g></g></g><g fill="#f8f9fa" fill-opacity="1"><g transform="translate(129.252125, 22.749447)"><g><path d="M 1.21875 3.90625 L 1.21875 -8.8125 L 2.578125 -8.8125 L 2.71875 -7.359375 C 3 -7.785156 3.398438 -8.171875 3.921875 -8.515625 C 4.453125 -8.859375 5.128906 -9.03125 5.953125 -9.03125 C 6.828125 -9.03125 7.585938 -8.828125 8.234375 -8.421875 C 8.890625 -8.015625 9.394531 -7.460938 9.75 -6.765625 C 10.113281 -6.066406 10.296875 -5.273438 10.296875 -4.390625 C 10.296875 -3.503906 10.113281 -2.710938 9.75 -2.015625 C 9.394531 -1.328125 8.890625 -0.78125 8.234375 -0.375 C 7.578125 0.0195312 6.8125 0.21875 5.9375 0.21875 C 5.207031 0.21875 4.5625 0.0703125 4 -0.21875 C 3.4375 -0.519531 3.007812 -0.9375 2.71875 -1.46875 L 2.71875 3.90625 Z M 5.78125 -1.078125 C 6.363281 -1.078125 6.878906 -1.21875 7.328125 -1.5 C 7.785156 -1.78125 8.144531 -2.164062 8.40625 -2.65625 C 8.664062 -3.15625 8.796875 -3.738281 8.796875 -4.40625 C 8.796875 -5.070312 8.664062 -5.648438 8.40625 -6.140625 C 8.144531 -6.640625 7.785156 -7.03125 7.328125 -7.3125 C 6.878906 -7.59375 6.363281 -7.734375 5.78125 -7.734375 C 5.1875 -7.734375 4.660156 -7.59375 4.203125 -7.3125 C 3.753906 -7.03125 3.398438 -6.640625 3.140625 -6.140625 C 2.878906 -5.648438 2.75 -5.070312 2.75 -4.40625 C 2.75 -3.738281 2.878906 -3.15625 3.140625 -2.65625 C 3.398438 -2.164062 3.753906 -1.78125 4.203125 -1.5 C 4.660156 -1.21875 5.1875 -1.078125 5.78125 -1.078125 Z M 5.78125 -1.078125 "/></g></g></g><g fill="#f8f9fa" fill-opacity="1"><g transform="translate(140.365726, 22.749447)"><g><path d="M 4.59375 0.21875 C 3.539062 0.21875 2.664062 -0.046875 1.96875 -0.578125 C 1.269531 -1.117188 0.863281 -1.84375 0.75 -2.75 L 2.28125 -2.75 C 2.375 -2.289062 2.617188 -1.890625 3.015625 -1.546875 C 3.410156 -1.210938 3.945312 -1.046875 4.625 -1.046875 C 5.25 -1.046875 5.707031 -1.175781 6 -1.4375 C 6.300781 -1.707031 6.453125 -2.023438 6.453125 -2.390625 C 6.453125 -2.929688 6.257812 -3.289062 5.875 -3.46875 C 5.488281 -3.644531 4.945312 -3.800781 4.25 -3.9375 C 3.769531 -4.039062 3.289062 -4.179688 2.8125 -4.359375 C 2.34375 -4.535156 1.945312 -4.785156 1.625 -5.109375 C 1.3125 -5.429688 1.15625 -5.859375 1.15625 -6.390625 C 1.15625 -7.160156 1.441406 -7.789062 2.015625 -8.28125 C 2.585938 -8.78125 3.367188 -9.03125 4.359375 -9.03125 C 5.285156 -9.03125 6.046875 -8.796875 6.640625 -8.328125 C 7.242188 -7.859375 7.59375 -7.191406 7.6875 -6.328125 L 6.21875 -6.328125 C 6.15625 -6.773438 5.960938 -7.125 5.640625 -7.375 C 5.316406 -7.632812 4.878906 -7.765625 4.328125 -7.765625 C 3.796875 -7.765625 3.382812 -7.648438 3.09375 -7.421875 C 2.8125 -7.203125 2.671875 -6.90625 2.671875 -6.53125 C 2.671875 -6.175781 2.851562 -5.898438 3.21875 -5.703125 C 3.59375 -5.503906 4.101562 -5.332031 4.75 -5.1875 C 5.289062 -5.070312 5.804688 -4.925781 6.296875 -4.75 C 6.785156 -4.582031 7.1875 -4.328125 7.5 -3.984375 C 7.820312 -3.648438 7.984375 -3.160156 7.984375 -2.515625 C 7.992188 -1.722656 7.691406 -1.066406 7.078125 -0.546875 C 6.472656 -0.0351562 5.644531 0.21875 4.59375 0.21875 Z M 4.59375 0.21875 "/></g></g></g><g fill="#f8f9fa" fill-opacity="1"><g transform="translate(149.206896, 22.749447)"><g><path d="M 2.125 -10.765625 C 1.832031 -10.765625 1.585938 -10.863281 1.390625 -11.0625 C 1.191406 -11.257812 1.09375 -11.503906 1.09375 -11.796875 C 1.09375 -12.078125 1.191406 -12.3125 1.390625 -12.5 C 1.585938 -12.695312 1.832031 -12.796875 2.125 -12.796875 C 2.414062 -12.796875 2.660156 -12.695312 2.859375 -12.5 C 3.054688 -12.3125 3.15625 -12.078125 3.15625 -11.796875 C 3.15625 -11.503906 3.054688 -11.257812 2.859375 -11.0625 C 2.660156 -10.863281 2.414062 -10.765625 2.125 -10.765625 Z M 1.390625 0 L 1.390625 -8.8125 L 2.875 -8.8125 L 2.875 0 Z M 1.390625 0 "/></g></g></g><g clip-path="url(#52368716e8)"><path fill="#ffffff" d="M 21.507812 8.878906 L 6.703125 8.878906 C 5.300781 8.878906 4.160156 10.019531 4.160156 11.421875 L 4.160156 20.675781 C 4.160156 22.078125 5.300781 23.21875 6.703125 23.21875 L 10.984375 23.21875 L 13.550781 26.644531 C 13.679688 26.816406 13.886719 26.921875 14.105469 26.921875 C 14.324219 26.921875 14.53125 26.816406 14.660156 26.644531 L 17.226562 23.21875 L 21.507812 23.21875 C 22.910156 23.21875 24.050781 22.078125 24.050781 20.675781 L 24.050781 11.421875 C 24.050781 10.019531 22.910156 8.878906 21.507812 8.878906 Z M 22.664062 20.675781 C 22.664062 21.3125 22.144531 21.832031 21.507812 21.832031 L 16.882812 21.832031 C 16.664062 21.832031 16.457031 21.933594 16.328125 22.109375 L 14.105469 25.070312 L 11.886719 22.109375 C 11.753906 21.933594 11.546875 21.832031 11.328125 21.832031 L 6.703125 21.832031 C 6.066406 21.832031 5.546875 21.3125 5.546875 20.675781 L 5.546875 11.421875 C 5.546875 10.785156 6.066406 10.265625 6.703125 10.265625 L 21.507812 10.265625 C 22.144531 10.265625 22.664062 10.785156 22.664062 11.421875 Z M 16.648438 14.199219 C 16.648438 15.007812 16.261719 15.773438 15.609375 16.25 C 15.304688 16.472656 14.800781 16.949219 14.800781 17.65625 L 14.800781 17.898438 C 14.800781 18.28125 14.488281 18.59375 14.105469 18.59375 C 13.722656 18.59375 13.410156 18.28125 13.410156 17.898438 L 13.410156 17.65625 C 13.410156 16.691406 13.914062 15.773438 14.789062 15.132812 C 15.089844 14.910156 15.261719 14.570312 15.261719 14.199219 C 15.261719 13.5625 14.742188 13.042969 14.105469 13.042969 C 13.46875 13.042969 12.949219 13.5625 12.949219 14.199219 C 12.949219 14.582031 12.636719 14.894531 12.253906 14.894531 C 11.871094 14.894531 11.5625 14.582031 11.5625 14.199219 C 11.5625 12.796875 12.703125 11.65625 14.105469 11.65625 C 15.507812 11.65625 16.648438 12.796875 16.648438 14.199219 Z M 15.03125 20.675781 C 15.03125 21.1875 14.617188 21.601562 14.105469 21.601562 C 13.59375 21.601562 13.179688 21.1875 13.179688 20.675781 C 13.179688 20.164062 13.59375 19.75 14.105469 19.75 C 14.617188 19.75 15.03125 20.164062 15.03125 20.675781 Z M 15.03125 20.675781 " fill-opacity="1" fill-rule="nonzero"/></g></svg>